HIERARCHY
ROOT Hips
{
  OFFSET 45.2623 98.3181 9.66919
  CHANNELS 6 Xposition Yposition Zposition Zrotation Xrotation Yrotation
  JOINT spine
  {
    OFFSET 0 8.30103 0.477351
    CHANNELS 3 Zrotation Xrotation Yrotation
    JOINT spine1
    {
      OFFSET 0 10.4565 0
      CHANNELS 3 Zrotation Xrotation Yrotation
      JOINT spine2
      {
        OFFSET 0 10.0192 0
        CHANNELS 3 Zrotation Xrotation Yrotation
        JOINT Neck
        {
          OFFSET 0 25.7235 1.22641
          CHANNELS 3 Zrotation Xrotation Yrotation
          JOINT Head
          {
            OFFSET 0 7.77175 0
            CHANNELS 3 Zrotation Xrotation Yrotation
            End Site
            {
              OFFSET 0 18.812 -6.20394
            }
          }
        }
        JOINT RightShoulder
        {
          OFFSET -4.2188 10.82 -0.587439
          CHANNELS 3 Zrotation Xrotation Yrotation
          JOINT RightArm
          {
            OFFSET 0 14.1914 0
            CHANNELS 3 Zrotation Xrotation Yrotation
            JOINT RightArmRoll
            {
              OFFSET 0 7.16409 0
              CHANNELS 3 Zrotation Xrotation Yrotation
              JOINT RightForeArm
              {
                OFFSET 0 20.8665 0
                CHANNELS 3 Zrotation Xrotation Yrotation
                JOINT RightForeArmRoll
                {
                  OFFSET 0 8.03921 0
                  CHANNELS 3 Zrotation Xrotation Yrotation
                  JOINT RightHand
                  {
                    OFFSET 0 16.133 0
                    CHANNELS 3 Zrotation Xrotation Yrotation
                    End Site
                    {
                      OFFSET 0 0 0
                    }
                  }
                }
              }
            }
          }
        }
        JOINT LeftShoulder
        {
          OFFSET 4.2188 10.82 -0.587439
          CHANNELS 3 Zrotation Xrotation Yrotation
          JOINT LeftArm
          {
            OFFSET 0 14.1914 0
            CHANNELS 3 Zrotation Xrotation Yrotation
            JOINT LeftArmRoll
            {
              OFFSET 0 7.16409 0
              CHANNELS 3 Zrotation Xrotation Yrotation
              JOINT LeftForeArm
              {
                OFFSET 0 20.8665 0
                CHANNELS 3 Zrotation Xrotation Yrotation
                JOINT LeftForeArmRoll
                {
                  OFFSET 0 8.03921 0
                  CHANNELS 3 Zrotation Xrotation Yrotation
                  JOINT LeftHand
                  {
                    OFFSET 0 16.133 0
                    CHANNELS 3 Zrotation Xrotation Yrotation
                    End Site
                    {
                      OFFSET 0 0 0
                    }
                  }
                }
              }
            }
          }
        }
      }
    }
  }
  JOINT RightUpLeg
  {
    OFFSET -7.35773 -1.34921 -1.13181
    CHANNELS 3 Zrotation Xrotation Yrotation
    JOINT RightUpLegRoll
    {
      OFFSET 0 18.9168 0
      CHANNELS 3 Zrotation Xrotation Yrotation
      JOINT RightLeg
      {
        OFFSET 0 -23.4256 0
        CHANNELS 3 Zrotation Xrotation Yrotation
        JOINT RightLegRoll
        {
          OFFSET 0 23.5023 0
          CHANNELS 3 Zrotation Xrotation Yrotation
          JOINT RightFoot
          {
            OFFSET 0 19.5617 0
            CHANNELS 3 Zrotation Xrotation Yrotation
            JOINT RightToeBase
            {
              OFFSET 0 16.3526 0
              CHANNELS 3 Zrotation Xrotation Yrotation
              End Site
              {
                OFFSET 0.00693125 7.91944 -0.912837
              }
            }
          }
        }
      }
    }
  }
  JOINT LeftUpLeg
  {
    OFFSET 7.35773 -1.34921 -1.13181
    CHANNELS 3 Zrotation Xrotation Yrotation
    JOINT LeftUpLegRoll
    {
      OFFSET 0 18.9169 0
      CHANNELS 3 Zrotation Xrotation Yrotation
      JOINT LeftLeg
      {
        OFFSET 0 23.4255 0
        CHANNELS 3 Zrotation Xrotation Yrotation
        JOINT LeftLegRoll
        {
          OFFSET 0 23.7195 0
          CHANNELS 3 Zrotation Xrotation Yrotation
          JOINT LeftFoot
          {
            OFFSET 0 19.3444 0
            CHANNELS 3 Zrotation Xrotation Yrotation
            JOINT LeftToeBase
            {
              OFFSET 0 16.3526 0
              CHANNELS 3 Zrotation Xrotation Yrotation
              End Site
              {
                OFFSET -0.0310629 7.91944 -0.912836
              }
            }
          }
        }
      }
    }
  }
}
MOTION
Frames: 5
Frame Time: 0.00208333
60.9196 98.1605 17.4208 -1.06446 -3.99224 104.469 -0.23168 0.039512 0.914073 -0.469351 4.07343 1.86786 -0.493013 5.7181 1.87531 -29.1724 7.34701 -7.26852 32.2513 3.58028 -11.697 31.7854 1.57126 5.56412 -175.942 55.4227 -47.8272 6.36111e-015 -4.77083e-014 9.54166e-015 -11.4623 28.0087 5.73844 1.29797e-006 -1.42883e-005 -3 8.02907 -4.95127 0.697509 -69.6687 -10.6184 6.57249 -92.2496 5.07205 -6.04838 5.94826e-006 2.59074e-006 1.92317e-006 -16.8368 46.2875 8.85411 1.29915e-007 -7.68407e-006 3.00001 -8.02911 -4.95137 -0.697671 178.41 -0.223729 7.43189 180 7.01376e-015 178.338 172.259 38.721 -178.838 2.08359e-006 -2.56809e-006 0.685506 -16.9998 66.0728 18.0795 8.13726 25.2325 -3.48805 -175.763 16.3951 2.79693 4.54188e-006 -4.6773e-006 -0.936381 -1.77228 -18.8938 0.784825 2.45166e-006 -6.74663e-007 -0.31549 20.2348 69.8772 -21.2289 -8.13649 25.2327 3.48774 
60.9245 98.1573 17.4055 -1.07187 -3.9477 104.485 -0.229826 0.0384403 0.914326 -0.46505 4.07073 1.86812 -0.48873 5.71539 1.87516 -29.1523 7.4227 -7.25265 32.2217 3.51847 -11.6784 31.8057 1.55725 5.54603 -175.979 55.4591 -47.7626 5.29669e-030 -4.77083e-014 6.36111e-015 -11.4974 28.0693 5.76708 1.29797e-006 -1.42883e-005 -3 8.02907 -4.95127 0.697509 -69.668 -10.5842 6.5553 -92.1566 4.95349 -6.20227 5.94826e-006 2.59074e-006 1.92317e-006 -16.8062 45.9637 8.76505 1.29915e-007 -7.68407e-006 3.00001 -8.02911 -4.95137 -0.697671 178.402 -0.240814 7.43178 180 7.01375e-015 178.337 172.273 38.7198 -178.844 2.08359e-006 -2.56809e-006 0.685479 -16.9966 66.0684 18.0762 8.13726 25.2325 -3.48805 -175.829 16.4023 2.84184 4.54188e-006 -4.6773e-006 -0.936977 -1.76939 -18.9229 0.786823 2.45166e-006 -6.74663e-007 -0.316752 20.248 69.8907 -21.2427 -8.13649 25.2327 3.48774 
60.9361 98.146 17.3853 -1.07912 -3.90313 104.5 -0.228012 0.0373472 0.914584 -0.460887 4.06802 1.86836 -0.484564 5.71269 1.87502 -29.1312 7.49662 -7.23715 32.1911 3.45796 -11.6601 31.8286 1.54279 5.52697 -176.018 55.4988 -47.7002 0 0 -0 -11.5314 28.1285 5.79526 1.29797e-006 -1.42883e-005 -3 8.02907 -4.95127 0.697509 -69.6665 -10.5508 6.53848 -92.0662 4.83654 -6.35577 5.94826e-006 2.59074e-006 1.92317e-006 -16.7753 45.6445 8.67777 1.29915e-007 -7.68407e-006 3.00001 -8.02911 -4.95137 -0.697671 178.392 -0.257127 7.43168 180 7.01375e-015 178.336 172.287 38.7208 -178.849 2.08359e-006 -2.56809e-006 0.685387 -16.9945 66.0653 18.0739 8.13726 25.2325 -3.48805 -175.895 16.4057 2.88481 4.54188e-006 -4.6773e-006 -0.937476 -1.76908 -18.9462 0.788138 2.45166e-006 -6.74663e-007 -0.317743 20.2582 69.9011 -21.2535 -8.13649 25.2327 3.48774 
60.9387 98.1314 17.3792 -1.08607 -3.85846 104.514 -0.226257 0.0362929 0.914842 -0.456923 4.06544 1.86859 -0.480572 5.71011 1.87489 -29.1089 7.56815 -7.2222 32.1589 3.39937 -11.6422 31.8547 1.52788 5.50686 -176.06 55.542 -47.6406 -6.36111e-015 -1.27222e-014 3.18055e-015 -11.5641 28.1859 5.82277 1.29797e-006 -1.42883e-005 -3 8.02907 -4.95127 0.697509 -69.6636 -10.5188 6.52233 -91.9795 4.72178 -6.50901 5.94826e-006 2.59074e-006 1.92317e-006 -16.7438 45.3305 8.59236 1.29915e-007 -7.68407e-006 3.00001 -8.02911 -4.95137 -0.697671 178.382 -0.272617 7.4316 180 7.01375e-015 178.336 172.301 38.7246 -178.855 2.08359e-006 -2.56809e-006 0.685216 -16.9936 66.0639 18.0726 8.13727 25.2325 -3.48805 -175.96 16.4046 2.92537 4.54188e-006 -4.6773e-006 -0.937857 -1.77188 -18.9626 0.788614 2.45166e-006 -6.74663e-007 -0.3184 20.2648 69.9079 -21.2608 -8.13649 25.2327 3.48774 
60.9495 98.1198 17.3565 -1.0926 -3.81362 104.527 -0.224582 0.0353377 0.915097 -0.453216 4.06314 1.8688 -0.476806 5.70781 1.87478 -29.0852 7.63667 -7.20797 32.1251 3.34328 -11.6247 31.8845 1.51256 5.48563 -176.104 55.589 -47.5845 7.06225e-031 -1.27222e-014 3.18055e-015 -11.5949 28.2412 5.84936 1.29797e-006 -1.42883e-005 -3 8.02907 -4.95127 0.697509 -69.659 -10.4886 6.50717 -91.8974 4.60981 -6.6621 5.94826e-006 2.59074e-006 1.92317e-006 -16.7115 45.0222 8.50892 1.29915e-007 -7.68407e-006 3.00001 -8.02911 -4.95137 -0.697671 178.37 -0.287236 7.43156 180 7.01375e-015 178.336 172.314 38.7316 -178.86 2.08359e-006 -2.56809e-006 0.684953 -16.9943 66.0644 18.0727 8.13727 25.2325 -3.48805 -176.025 16.3981 2.96307 4.54188e-006 -4.6773e-006 -0.938099 -1.77833 -18.971 0.788094 2.45166e-006 -6.74663e-007 -0.318661 20.2669 69.9104 -21.2638 -8.13649 25.2327 3.48774 
